<svg xmlns="http://www.w3.org/2000/svg" xmlns:xlink="http://www.w3.org/1999/xlink" xmlns:lucid="lucid" width="1536" height="1376"><g transform="translate(0 656)" lucid:page-tab-id="0_0"><path d="M880 32h200v200H880z" fill="#fff"/><path d="M880 32h200v200H880zM880 72h200M940 72v160" stroke="#666" stroke-width="2" fill="none"/><use xlink:href="#a" transform="matrix(1,0,0,1,890,32) translate(51.099999999999994 23.6)"/><use xlink:href="#b" transform="matrix(1,0,0,1,885,74.5) translate(15.525 17.1)"/><use xlink:href="#c" transform="matrix(1,0,0,1,945,74.5) translate(0 17.1)"/><use xlink:href="#b" transform="matrix(1,0,0,1,885,106.5) translate(15.525 17.1)"/><use xlink:href="#d" transform="matrix(1,0,0,1,945,106.5) translate(0 17.1)"/><use xlink:href="#e" transform="matrix(1,0,0,1,885,138.5) translate(6.024999999999999 17.1)"/><use xlink:href="#f" transform="matrix(1,0,0,1,945,138.5) translate(0 17.1)"/><use xlink:href="#e" transform="matrix(1,0,0,1,885,170.5) translate(6.024999999999999 17.1)"/><use xlink:href="#g" transform="matrix(1,0,0,1,945,170.5) translate(0 17.1)"/><use xlink:href="#h" transform="matrix(1,0,0,1,885,202.5) translate(8.024999999999999 17.1)"/><use xlink:href="#i" transform="matrix(1,0,0,1,945,202.5) translate(0 17.1)"/><path d="M600-500h200v136H600z" fill="#fff"/><path d="M600-500h200v136H600zM600-460h200M660-460v96" stroke="#666" stroke-width="2" fill="none"/><use xlink:href="#j" transform="matrix(1,0,0,1,610,-500) translate(71.05 23.6)"/><use xlink:href="#b" transform="matrix(1,0,0,1,605,-457.5) translate(15.525 17.1)"/><use xlink:href="#k" transform="matrix(1,0,0,1,665,-457.5) translate(0 17.1)"/><use xlink:href="#l" transform="matrix(1,0,0,1,605,-425.5) translate(1.5500000000000007 17.1)"/><use xlink:href="#m" transform="matrix(1,0,0,1,665,-425.5) translate(0 17.1)"/><use xlink:href="#l" transform="matrix(1,0,0,1,605,-393.5) translate(1.5500000000000007 17.1)"/><use xlink:href="#n" transform="matrix(1,0,0,1,665,-393.5) translate(0 17.1)"/><path d="M300-266h200v168H300z" fill="#fff"/><path d="M300-266h200v168H300zM300-226h200M360-226v128" stroke="#666" stroke-width="2" fill="none"/><use xlink:href="#o" transform="matrix(1,0,0,1,310,-266) translate(34.55 23.6)"/><use xlink:href="#b" transform="matrix(1,0,0,1,305,-223.5) translate(15.525 17.1)"/><use xlink:href="#p" transform="matrix(1,0,0,1,365,-223.5) translate(0 17.1)"/><use xlink:href="#b" transform="matrix(1,0,0,1,305,-191.5) translate(15.525 17.1)"/><use xlink:href="#k" transform="matrix(1,0,0,1,365,-191.5) translate(0 17.1)"/><use xlink:href="#l" transform="matrix(1,0,0,1,305,-159.5) translate(1.5500000000000007 17.1)"/><use xlink:href="#q" transform="matrix(1,0,0,1,365,-159.5) translate(0 17.1)"/><use xlink:href="#l" transform="matrix(1,0,0,1,305,-127.5) translate(1.5500000000000007 17.1)"/><use xlink:href="#r" transform="matrix(1,0,0,1,365,-127.5) translate(0 17.1)"/><path d="M600-266h200v200H600z" fill="#fff"/><path d="M600-266h200v200H600zM600-226h200M660-226v160" stroke="#666" stroke-width="2" fill="none"/><use xlink:href="#s" transform="matrix(1,0,0,1,610,-266) translate(63.2 23.6)"/><use xlink:href="#b" transform="matrix(1,0,0,1,605,-223.5) translate(15.525 17.1)"/><use xlink:href="#t" transform="matrix(1,0,0,1,665,-223.5) translate(0 17.1)"/><use xlink:href="#b" transform="matrix(1,0,0,1,605,-191.5) translate(15.525 17.1)"/><use xlink:href="#k" transform="matrix(1,0,0,1,665,-191.5) translate(0 17.1)"/><use xlink:href="#b" transform="matrix(1,0,0,1,605,-159.5) translate(15.525 17.1)"/><use xlink:href="#u" transform="matrix(1,0,0,1,665,-159.5) translate(0 17.1)"/><use xlink:href="#v" transform="matrix(1,0,0,1,605,-127.5) translate(8.024999999999999 17.1)"/><use xlink:href="#w" transform="matrix(1,0,0,1,665,-127.5) translate(0 17.1)"/><use xlink:href="#e" transform="matrix(1,0,0,1,605,-95.5) translate(6.024999999999999 17.1)"/><use xlink:href="#x" transform="matrix(1,0,0,1,665,-95.5) translate(0 17.1)"/><path d="M600 32h200v136H600z" fill="#fff"/><path d="M600 32h200v136H600zM600 72h200M660 72v96" stroke="#666" stroke-width="2" fill="none"/><use xlink:href="#y" transform="matrix(1,0,0,1,610,32) translate(38.725 23.6)"/><use xlink:href="#b" transform="matrix(1,0,0,1,605,74.5) translate(15.525 17.1)"/><use xlink:href="#u" transform="matrix(1,0,0,1,665,74.5) translate(0 17.1)"/><use xlink:href="#l" transform="matrix(1,0,0,1,605,106.5) translate(1.5500000000000007 17.1)"/><use xlink:href="#z" transform="matrix(1,0,0,1,665,106.5) translate(0 17.1)"/><use xlink:href="#A" transform="matrix(1,0,0,1,605,138.5) translate(9.5 17.1)"/><use xlink:href="#B" transform="matrix(1,0,0,1,665,138.5) translate(0 17.1)"/><path d="M599-411.8H400V-267" stroke="#999" stroke-width="2" fill="none"/><path fill="#fff"/><path d="M580-401.8h-2v-20h2zM410.9-267.9l-1.8.9-9.1-18.2-9.1 18.2-1.8-.9 10.9-21.78z" fill="#999"/><path d="M700 31v-96" stroke="#999" stroke-width="2" fill="none"/><path fill="#fff"/><path d="M710 12h-20v-2h20zM710.9-64.1L700-42.33l-10.9-21.8 1.8-.88 9.1 18.2 9.1-18.2z" fill="#999"/><path d="M880-266h200v232H880z" fill="#fff"/><path d="M880-266h200v232H880zM880-226h200M940-226v192" stroke="#666" stroke-width="2" fill="none"/><use xlink:href="#C" transform="matrix(1,0,0,1,890,-266) translate(69.025 23.6)"/><use xlink:href="#b" transform="matrix(1,0,0,1,885,-223.5) translate(15.525 17.1)"/><use xlink:href="#d" transform="matrix(1,0,0,1,945,-223.5) translate(0 17.1)"/><use xlink:href="#D" transform="matrix(1,0,0,1,885,-191.5) translate(15.525 17.1)"/><use xlink:href="#k" transform="matrix(1,0,0,1,945,-191.5) translate(0 17.1)"/><use xlink:href="#b" transform="matrix(1,0,0,1,885,-159.5) translate(15.525 17.1)"/><use xlink:href="#E" transform="matrix(1,0,0,1,945,-159.5) translate(0 17.1)"/><use xlink:href="#l" transform="matrix(1,0,0,1,885,-127.5) translate(1.5500000000000007 17.1)"/><use xlink:href="#z" transform="matrix(1,0,0,1,945,-127.5) translate(0 17.1)"/><use xlink:href="#v" transform="matrix(1,0,0,1,885,-95.5) translate(8.024999999999999 17.1)"/><use xlink:href="#F" transform="matrix(1,0,0,1,945,-95.5) translate(0 17.1)"/><use xlink:href="#v" transform="matrix(1,0,0,1,885,-63.5) translate(8.024999999999999 17.1)"/><use xlink:href="#G" transform="matrix(1,0,0,1,945,-63.5) translate(0 17.1)"/><path d="M1140-202h200v104h-200z" fill="#fff"/><path d="M1140-202h200v104h-200zM1140-162h200M1200-162v64" stroke="#666" stroke-width="2" fill="none"/><use xlink:href="#H" transform="matrix(1,0,0,1,1150,-202) translate(44.55 23.6)"/><use xlink:href="#b" transform="matrix(1,0,0,1,1145,-159.5) translate(15.525 17.1)"/><use xlink:href="#E" transform="matrix(1,0,0,1,1205,-159.5) translate(0 17.1)"/><use xlink:href="#l" transform="matrix(1,0,0,1,1145,-127.5) translate(1.5500000000000007 17.1)"/><use xlink:href="#z" transform="matrix(1,0,0,1,1205,-127.5) translate(0 17.1)"/><path d="M1139-145.96h-29V-114h-29" stroke="#999" stroke-width="2" fill="none"/><path fill="#fff"/><path d="M1120-135.96h-2v-20h2zM1103.68-114l-21.8 10.9-.88-1.8 18.2-9.1-18.2-9.1.9-1.8z" fill="#999"/><path d="M980-33v64" stroke="#999" stroke-width="2" fill="none"/><path fill="#fff"/><path d="M990-12h-20v-2h20zM990.9 30.1l-1.8.9-9.1-18.2-9.1 18.2-1.8-.9L980 8.33z" fill="#999"/><path d="M801-411.8h179V-267" stroke="#999" stroke-width="2" fill="none"/><path fill="#fff"/><path d="M822-401.8h-2v-20h2zM990.9-267.9l-1.8.9-9.1-18.2-9.1 18.2-1.8-.9 10.9-21.78z" fill="#999"/><path d="M700-363v96" stroke="#999" stroke-width="2" fill="none"/><path fill="#fff"/><path d="M710-342h-20v-2h20zM710.9-267.9l-1.8.9-9.1-18.2-9.1 18.2-1.8-.9 10.9-21.78z" fill="#999"/><defs><path fill="#333" d="M233-177c-1 41-23 64-60 70L243 0h-38l-65-103H63V0H30v-248c88 3 205-21 203 71zM63-129c60-2 137 13 137-47 0-61-80-42-137-45v92" id="I"/><path fill="#333" d="M100-194c63 0 86 42 84 106H49c0 40 14 67 53 68 26 1 43-12 49-29l28 8c-11 28-37 45-77 45C44 4 14-33 15-96c1-61 26-98 85-98zm52 81c6-60-76-77-97-28-3 7-6 17-6 28h103" id="J"/><path fill="#333" d="M210-169c-67 3-38 105-44 169h-31v-121c0-29-5-50-35-48C34-165 62-65 56 0H25l-1-190h30c1 10-1 24 2 32 10-44 99-50 107 0 11-21 27-35 58-36 85-2 47 119 55 194h-31v-121c0-29-5-49-35-48" id="K"/><path fill="#333" d="M24-231v-30h32v30H24zM24 0v-190h32V0H24" id="L"/><path fill="#333" d="M117-194c89-4 53 116 60 194h-32v-121c0-31-8-49-39-48C34-167 62-67 57 0H25l-1-190h30c1 10-1 24 2 32 11-22 29-35 61-36" id="M"/><path fill="#333" d="M85-194c31 0 48 13 60 33l-1-100h32l1 261h-30c-2-10 0-23-3-31C134-8 116 4 85 4 32 4 16-35 15-94c0-66 23-100 70-100zm9 24c-40 0-46 34-46 75 0 40 6 74 45 74 42 0 51-32 51-76 0-42-9-74-50-73" id="N"/><path fill="#333" d="M114-163C36-179 61-72 57 0H25l-1-190h30c1 12-1 29 2 39 6-27 23-49 58-41v29" id="O"/><g id="a"><use transform="matrix(0.05,0,0,0.05,0,0)" xlink:href="#I"/><use transform="matrix(0.05,0,0,0.05,12.950000000000001,0)" xlink:href="#J"/><use transform="matrix(0.05,0,0,0.05,22.950000000000003,0)" xlink:href="#K"/><use transform="matrix(0.05,0,0,0.05,37.900000000000006,0)" xlink:href="#L"/><use transform="matrix(0.05,0,0,0.05,41.85000000000001,0)" xlink:href="#M"/><use transform="matrix(0.05,0,0,0.05,51.85,0)" xlink:href="#N"/><use transform="matrix(0.05,0,0,0.05,61.85,0)" xlink:href="#J"/><use transform="matrix(0.05,0,0,0.05,71.85000000000001,0)" xlink:href="#O"/></g><path d="M24-231v-30h32v30H24zM24 0v-190h32V0H24" id="P"/><path d="M117-194c89-4 53 116 60 194h-32v-121c0-31-8-49-39-48C34-167 62-67 57 0H25l-1-190h30c1 10-1 24 2 32 11-22 29-35 61-36" id="Q"/><path d="M59-47c-2 24 18 29 38 22v24C64 9 27 4 27-40v-127H5v-23h24l9-43h21v43h35v23H59v120" id="R"/><g id="b"><use transform="matrix(0.05,0,0,0.05,0,0)" xlink:href="#P"/><use transform="matrix(0.05,0,0,0.05,3.95,0)" xlink:href="#Q"/><use transform="matrix(0.05,0,0,0.05,13.949999999999998,0)" xlink:href="#R"/></g><path d="M85-194c31 0 48 13 60 33l-1-100h32l1 261h-30c-2-10 0-23-3-31C134-8 116 4 85 4 32 4 16-35 15-94c0-66 23-100 70-100zm9 24c-40 0-46 34-46 75 0 40 6 74 45 74 42 0 51-32 51-76 0-42-9-74-50-73" id="S"/><path d="M-5 72V49h209v23H-5" id="T"/><path d="M114-163C36-179 61-72 57 0H25l-1-190h30c1 12-1 29 2 39 6-27 23-49 58-41v29" id="U"/><path d="M100-194c63 0 86 42 84 106H49c0 40 14 67 53 68 26 1 43-12 49-29l28 8c-11 28-37 45-77 45C44 4 14-33 15-96c1-61 26-98 85-98zm52 81c6-60-76-77-97-28-3 7-6 17-6 28h103" id="V"/><path d="M210-169c-67 3-38 105-44 169h-31v-121c0-29-5-50-35-48C34-165 62-65 56 0H25l-1-190h30c1 10-1 24 2 32 10-44 99-50 107 0 11-21 27-35 58-36 85-2 47 119 55 194h-31v-121c0-29-5-49-35-48" id="W"/><g id="c"><use transform="matrix(0.05,0,0,0.05,0,0)" xlink:href="#P"/><use transform="matrix(0.05,0,0,0.05,3.95,0)" xlink:href="#S"/><use transform="matrix(0.05,0,0,0.05,13.949999999999998,0)" xlink:href="#T"/><use transform="matrix(0.05,0,0,0.05,23.95,0)" xlink:href="#U"/><use transform="matrix(0.05,0,0,0.05,29.899999999999995,0)" xlink:href="#V"/><use transform="matrix(0.05,0,0,0.05,39.9,0)" xlink:href="#W"/><use transform="matrix(0.05,0,0,0.05,54.85,0)" xlink:href="#P"/><use transform="matrix(0.05,0,0,0.05,58.800000000000004,0)" xlink:href="#Q"/><use transform="matrix(0.05,0,0,0.05,68.80000000000001,0)" xlink:href="#S"/><use transform="matrix(0.05,0,0,0.05,78.80000000000001,0)" xlink:href="#V"/><use transform="matrix(0.05,0,0,0.05,88.80000000000001,0)" xlink:href="#U"/></g><path d="M100-194c62-1 85 37 85 99 1 63-27 99-86 99S16-35 15-95c0-66 28-99 85-99zM99-20c44 1 53-31 53-75 0-43-8-75-51-75s-53 32-53 75 10 74 51 75" id="X"/><path d="M135-143c-3-34-86-38-87 0 15 53 115 12 119 90S17 21 10-45l28-5c4 36 97 45 98 0-10-56-113-15-118-90-4-57 82-63 122-42 12 7 21 19 24 35" id="Y"/><g id="d"><use transform="matrix(0.05,0,0,0.05,0,0)" xlink:href="#P"/><use transform="matrix(0.05,0,0,0.05,3.95,0)" xlink:href="#S"/><use transform="matrix(0.05,0,0,0.05,13.949999999999998,0)" xlink:href="#T"/><use transform="matrix(0.05,0,0,0.05,23.95,0)" xlink:href="#S"/><use transform="matrix(0.05,0,0,0.05,33.95,0)" xlink:href="#X"/><use transform="matrix(0.05,0,0,0.05,43.95,0)" xlink:href="#Y"/><use transform="matrix(0.05,0,0,0.05,52.95,0)" xlink:href="#V"/></g><path d="M30-248c118-7 216 8 213 122C240-48 200 0 122 0H30v-248zM63-27c89 8 146-16 146-99s-60-101-146-95v194" id="Z"/><path d="M141-36C126-15 110 5 73 4 37 3 15-17 15-53c-1-64 63-63 125-63 3-35-9-54-41-54-24 1-41 7-42 31l-33-3c5-37 33-52 76-52 45 0 72 20 72 64v82c-1 20 7 32 28 27v20c-31 9-61-2-59-35zM48-53c0 20 12 33 32 33 41-3 63-29 60-74-43 2-92-5-92 41" id="aa"/><g id="e"><use transform="matrix(0.05,0,0,0.05,0,0)" xlink:href="#Z"/><use transform="matrix(0.05,0,0,0.05,12.950000000000001,0)" xlink:href="#aa"/><use transform="matrix(0.05,0,0,0.05,22.950000000000003,0)" xlink:href="#R"/><use transform="matrix(0.05,0,0,0.05,27.950000000000003,0)" xlink:href="#V"/></g><g id="f"><use transform="matrix(0.05,0,0,0.05,0,0)" xlink:href="#Y"/><use transform="matrix(0.05,0,0,0.05,9,0)" xlink:href="#R"/><use transform="matrix(0.05,0,0,0.05,14,0)" xlink:href="#aa"/><use transform="matrix(0.05,0,0,0.05,24,0)" xlink:href="#U"/><use transform="matrix(0.05,0,0,0.05,29.950000000000003,0)" xlink:href="#R"/><use transform="matrix(0.05,0,0,0.05,34.95,0)" xlink:href="#T"/><use transform="matrix(0.05,0,0,0.05,44.95,0)" xlink:href="#S"/><use transform="matrix(0.05,0,0,0.05,54.95,0)" xlink:href="#aa"/><use transform="matrix(0.05,0,0,0.05,64.95,0)" xlink:href="#R"/><use transform="matrix(0.05,0,0,0.05,69.95,0)" xlink:href="#V"/></g><path d="M141 0L90-78 38 0H4l68-98-65-92h35l48 74 47-74h35l-64 92 68 98h-35" id="ab"/><g id="g"><use transform="matrix(0.05,0,0,0.05,0,0)" xlink:href="#Q"/><use transform="matrix(0.05,0,0,0.05,10,0)" xlink:href="#V"/><use transform="matrix(0.05,0,0,0.05,20,0)" xlink:href="#ab"/><use transform="matrix(0.05,0,0,0.05,29,0)" xlink:href="#R"/><use transform="matrix(0.05,0,0,0.05,34,0)" xlink:href="#T"/><use transform="matrix(0.05,0,0,0.05,44,0)" xlink:href="#S"/><use transform="matrix(0.05,0,0,0.05,54,0)" xlink:href="#aa"/><use transform="matrix(0.05,0,0,0.05,64,0)" xlink:href="#R"/><use transform="matrix(0.05,0,0,0.05,69,0)" xlink:href="#V"/></g><path d="M115-194c53 0 69 39 70 98 0 66-23 100-70 100C84 3 66-7 56-30L54 0H23l1-261h32v101c10-23 28-34 59-34zm-8 174c40 0 45-34 45-75 0-40-5-75-45-74-42 0-51 32-51 76 0 43 10 73 51 73" id="ac"/><path d="M24 0v-261h32V0H24" id="ad"/><g id="h"><use transform="matrix(0.05,0,0,0.05,0,0)" xlink:href="#ac"/><use transform="matrix(0.05,0,0,0.05,10,0)" xlink:href="#X"/><use transform="matrix(0.05,0,0,0.05,20,0)" xlink:href="#X"/><use transform="matrix(0.05,0,0,0.05,30,0)" xlink:href="#ad"/></g><g id="i"><use transform="matrix(0.05,0,0,0.05,0,0)" xlink:href="#S"/><use transform="matrix(0.05,0,0,0.05,10,0)" xlink:href="#P"/><use transform="matrix(0.05,0,0,0.05,13.949999999999998,0)" xlink:href="#Y"/><use transform="matrix(0.05,0,0,0.05,22.95,0)" xlink:href="#W"/><use transform="matrix(0.05,0,0,0.05,37.9,0)" xlink:href="#P"/><use transform="matrix(0.05,0,0,0.05,41.85,0)" xlink:href="#Y"/><use transform="matrix(0.05,0,0,0.05,50.85,0)" xlink:href="#Y"/><use transform="matrix(0.05,0,0,0.05,59.85,0)" xlink:href="#V"/><use transform="matrix(0.05,0,0,0.05,69.85,0)" xlink:href="#S"/></g><path fill="#333" d="M232-93c-1 65-40 97-104 97C67 4 28-28 28-90v-158h33c8 89-33 224 67 224 102 0 64-133 71-224h33v155" id="ae"/><path fill="#333" d="M135-143c-3-34-86-38-87 0 15 53 115 12 119 90S17 21 10-45l28-5c4 36 97 45 98 0-10-56-113-15-118-90-4-57 82-63 122-42 12 7 21 19 24 35" id="af"/><g id="j"><use transform="matrix(0.05,0,0,0.05,0,0)" xlink:href="#ae"/><use transform="matrix(0.05,0,0,0.05,12.950000000000001,0)" xlink:href="#af"/><use transform="matrix(0.05,0,0,0.05,21.950000000000003,0)" xlink:href="#J"/><use transform="matrix(0.05,0,0,0.05,31.950000000000003,0)" xlink:href="#O"/></g><path d="M84 4C-5 8 30-112 23-190h32v120c0 31 7 50 39 49 72-2 45-101 50-169h31l1 190h-30c-1-10 1-25-2-33-11 22-28 36-60 37" id="ag"/><g id="k"><use transform="matrix(0.05,0,0,0.05,0,0)" xlink:href="#P"/><use transform="matrix(0.05,0,0,0.05,3.95,0)" xlink:href="#S"/><use transform="matrix(0.05,0,0,0.05,13.949999999999998,0)" xlink:href="#T"/><use transform="matrix(0.05,0,0,0.05,23.95,0)" xlink:href="#ag"/><use transform="matrix(0.05,0,0,0.05,33.95,0)" xlink:href="#Y"/><use transform="matrix(0.05,0,0,0.05,42.95,0)" xlink:href="#V"/><use transform="matrix(0.05,0,0,0.05,52.95,0)" xlink:href="#U"/></g><path d="M185-189c-5-48-123-54-124 2 14 75 158 14 163 119 3 78-121 87-175 55-17-10-28-26-33-46l33-7c5 56 141 63 141-1 0-78-155-14-162-118-5-82 145-84 179-34 5 7 8 16 11 25" id="ah"/><path d="M177-190C167-65 218 103 67 71c-23-6-38-20-44-43l32-5c15 47 100 32 89-28v-30C133-14 115 1 83 1 29 1 15-40 15-95c0-56 16-97 71-98 29-1 48 16 59 35 1-10 0-23 2-32h30zM94-22c36 0 50-32 50-73 0-42-14-75-50-75-39 0-46 34-46 75s6 73 46 73" id="ai"/><g id="l"><use transform="matrix(0.05,0,0,0.05,0,0)" xlink:href="#ah"/><use transform="matrix(0.05,0,0,0.05,12,0)" xlink:href="#R"/><use transform="matrix(0.05,0,0,0.05,17,0)" xlink:href="#U"/><use transform="matrix(0.05,0,0,0.05,22.95,0)" xlink:href="#P"/><use transform="matrix(0.05,0,0,0.05,26.899999999999995,0)" xlink:href="#Q"/><use transform="matrix(0.05,0,0,0.05,36.9,0)" xlink:href="#ai"/></g><g id="m"><use transform="matrix(0.05,0,0,0.05,0,0)" xlink:href="#ag"/><use transform="matrix(0.05,0,0,0.05,10,0)" xlink:href="#Y"/><use transform="matrix(0.05,0,0,0.05,19,0)" xlink:href="#V"/><use transform="matrix(0.05,0,0,0.05,29,0)" xlink:href="#U"/><use transform="matrix(0.05,0,0,0.05,34.95,0)" xlink:href="#Q"/><use transform="matrix(0.05,0,0,0.05,44.95,0)" xlink:href="#aa"/><use transform="matrix(0.05,0,0,0.05,54.95,0)" xlink:href="#W"/><use transform="matrix(0.05,0,0,0.05,69.9,0)" xlink:href="#V"/></g><path d="M115-194c55 1 70 41 70 98S169 2 115 4C84 4 66-9 55-30l1 105H24l-1-265h31l2 30c10-21 28-34 59-34zm-8 174c40 0 45-34 45-75s-6-73-45-74c-42 0-51 32-51 76 0 43 10 73 51 73" id="aj"/><path d="M206 0h-36l-40-164L89 0H53L-1-190h32L70-26l43-164h34l41 164 42-164h31" id="ak"/><g id="n"><use transform="matrix(0.05,0,0,0.05,0,0)" xlink:href="#aj"/><use transform="matrix(0.05,0,0,0.05,10,0)" xlink:href="#aa"/><use transform="matrix(0.05,0,0,0.05,20,0)" xlink:href="#Y"/><use transform="matrix(0.05,0,0,0.05,29,0)" xlink:href="#Y"/><use transform="matrix(0.05,0,0,0.05,38,0)" xlink:href="#ak"/><use transform="matrix(0.05,0,0,0.05,50.95,0)" xlink:href="#X"/><use transform="matrix(0.05,0,0,0.05,60.95,0)" xlink:href="#U"/><use transform="matrix(0.05,0,0,0.05,66.9,0)" xlink:href="#S"/></g><path fill="#333" d="M30-248c87 1 191-15 191 75 0 78-77 80-158 76V0H30v-248zm33 125c57 0 124 11 124-50 0-59-68-47-124-48v98" id="al"/><path fill="#333" d="M100-194c62-1 85 37 85 99 1 63-27 99-86 99S16-35 15-95c0-66 28-99 85-99zM99-20c44 1 53-31 53-75 0-43-8-75-51-75s-53 32-53 75 10 74 51 75" id="am"/><path fill="#333" d="M141-36C126-15 110 5 73 4 37 3 15-17 15-53c-1-64 63-63 125-63 3-35-9-54-41-54-24 1-41 7-42 31l-33-3c5-37 33-52 76-52 45 0 72 20 72 64v82c-1 20 7 32 28 27v20c-31 9-61-2-59-35zM48-53c0 20 12 33 32 33 41-3 63-29 60-74-43 2-92-5-92 41" id="an"/><path fill="#333" d="M24 0v-261h32V0H24" id="ao"/><path fill="#333" d="M-5 72V49h209v23H-5" id="ap"/><path fill="#333" d="M33 0v-248h34V0H33" id="aq"/><path fill="#333" d="M101-234c-31-9-42 10-38 44h38v23H63V0H32v-167H5v-23h27c-7-52 17-82 69-68v24" id="ar"/><g id="o"><use transform="matrix(0.05,0,0,0.05,0,0)" xlink:href="#al"/><use transform="matrix(0.05,0,0,0.05,12,0)" xlink:href="#J"/><use transform="matrix(0.05,0,0,0.05,22,0)" xlink:href="#O"/><use transform="matrix(0.05,0,0,0.05,27.950000000000003,0)" xlink:href="#af"/><use transform="matrix(0.05,0,0,0.05,36.95,0)" xlink:href="#am"/><use transform="matrix(0.05,0,0,0.05,46.95,0)" xlink:href="#M"/><use transform="matrix(0.05,0,0,0.05,56.95,0)" xlink:href="#an"/><use transform="matrix(0.05,0,0,0.05,66.95,0)" xlink:href="#ao"/><use transform="matrix(0.05,0,0,0.05,70.9,0)" xlink:href="#ap"/><use transform="matrix(0.05,0,0,0.05,80.9,0)" xlink:href="#aq"/><use transform="matrix(0.05,0,0,0.05,85.9,0)" xlink:href="#M"/><use transform="matrix(0.05,0,0,0.05,95.9,0)" xlink:href="#ar"/><use transform="matrix(0.05,0,0,0.05,100.9,0)" xlink:href="#am"/></g><path d="M101-234c-31-9-42 10-38 44h38v23H63V0H32v-167H5v-23h27c-7-52 17-82 69-68v24" id="as"/><g id="p"><use transform="matrix(0.05,0,0,0.05,0,0)" xlink:href="#P"/><use transform="matrix(0.05,0,0,0.05,3.95,0)" xlink:href="#S"/><use transform="matrix(0.05,0,0,0.05,13.949999999999998,0)" xlink:href="#T"/><use transform="matrix(0.05,0,0,0.05,23.95,0)" xlink:href="#aj"/><use transform="matrix(0.05,0,0,0.05,33.95,0)" xlink:href="#V"/><use transform="matrix(0.05,0,0,0.05,43.95,0)" xlink:href="#U"/><use transform="matrix(0.05,0,0,0.05,49.900000000000006,0)" xlink:href="#Y"/><use transform="matrix(0.05,0,0,0.05,58.900000000000006,0)" xlink:href="#X"/><use transform="matrix(0.05,0,0,0.05,68.9,0)" xlink:href="#Q"/><use transform="matrix(0.05,0,0,0.05,78.9,0)" xlink:href="#aa"/><use transform="matrix(0.05,0,0,0.05,88.9,0)" xlink:href="#ad"/><use transform="matrix(0.05,0,0,0.05,92.85000000000001,0)" xlink:href="#T"/><use transform="matrix(0.05,0,0,0.05,102.85000000000001,0)" xlink:href="#P"/><use transform="matrix(0.05,0,0,0.05,106.80000000000001,0)" xlink:href="#Q"/><use transform="matrix(0.05,0,0,0.05,116.80000000000001,0)" xlink:href="#as"/><use transform="matrix(0.05,0,0,0.05,121.80000000000001,0)" xlink:href="#X"/></g><g id="q"><use transform="matrix(0.05,0,0,0.05,0,0)" xlink:href="#as"/><use transform="matrix(0.05,0,0,0.05,5,0)" xlink:href="#P"/><use transform="matrix(0.05,0,0,0.05,8.95,0)" xlink:href="#U"/><use transform="matrix(0.05,0,0,0.05,14.899999999999999,0)" xlink:href="#Y"/><use transform="matrix(0.05,0,0,0.05,23.9,0)" xlink:href="#R"/><use transform="matrix(0.05,0,0,0.05,28.899999999999995,0)" xlink:href="#T"/><use transform="matrix(0.05,0,0,0.05,38.9,0)" xlink:href="#Q"/><use transform="matrix(0.05,0,0,0.05,48.9,0)" xlink:href="#aa"/><use transform="matrix(0.05,0,0,0.05,58.900000000000006,0)" xlink:href="#W"/><use transform="matrix(0.05,0,0,0.05,73.85,0)" xlink:href="#V"/></g><g id="r"><use transform="matrix(0.05,0,0,0.05,0,0)" xlink:href="#ad"/><use transform="matrix(0.05,0,0,0.05,3.95,0)" xlink:href="#aa"/><use transform="matrix(0.05,0,0,0.05,13.949999999999998,0)" xlink:href="#Y"/><use transform="matrix(0.05,0,0,0.05,22.95,0)" xlink:href="#R"/><use transform="matrix(0.05,0,0,0.05,27.950000000000003,0)" xlink:href="#T"/><use transform="matrix(0.05,0,0,0.05,37.95,0)" xlink:href="#Q"/><use transform="matrix(0.05,0,0,0.05,47.95,0)" xlink:href="#aa"/><use transform="matrix(0.05,0,0,0.05,57.95,0)" xlink:href="#W"/><use transform="matrix(0.05,0,0,0.05,72.9,0)" xlink:href="#V"/></g><path fill="#333" d="M137 0h-34L2-248h35l83 218 83-218h36" id="at"/><path fill="#333" d="M84 4C-5 8 30-112 23-190h32v120c0 31 7 50 39 49 72-2 45-101 50-169h31l1 190h-30c-1-10 1-25-2-33-11 22-28 36-60 37" id="au"/><g id="s"><use transform="matrix(0.05,0,0,0.05,0,0)" xlink:href="#at"/><use transform="matrix(0.05,0,0,0.05,10.65,0)" xlink:href="#an"/><use transform="matrix(0.05,0,0,0.05,20.65,0)" xlink:href="#ao"/><use transform="matrix(0.05,0,0,0.05,24.599999999999998,0)" xlink:href="#au"/><use transform="matrix(0.05,0,0,0.05,34.599999999999994,0)" xlink:href="#J"/><use transform="matrix(0.05,0,0,0.05,44.599999999999994,0)" xlink:href="#af"/></g><path d="M108 0H70L1-190h34L89-25l56-165h34" id="av"/><g id="t"><use transform="matrix(0.05,0,0,0.05,0,0)" xlink:href="#P"/><use transform="matrix(0.05,0,0,0.05,3.95,0)" xlink:href="#S"/><use transform="matrix(0.05,0,0,0.05,13.949999999999998,0)" xlink:href="#T"/><use transform="matrix(0.05,0,0,0.05,23.95,0)" xlink:href="#av"/><use transform="matrix(0.05,0,0,0.05,32.95,0)" xlink:href="#aa"/><use transform="matrix(0.05,0,0,0.05,42.95,0)" xlink:href="#ad"/><use transform="matrix(0.05,0,0,0.05,46.900000000000006,0)" xlink:href="#ag"/><use transform="matrix(0.05,0,0,0.05,56.900000000000006,0)" xlink:href="#V"/><use transform="matrix(0.05,0,0,0.05,66.9,0)" xlink:href="#Y"/></g><path d="M179-190L93 31C79 59 56 82 12 73V49c39 6 53-20 64-50L1-190h34L92-34l54-156h33" id="aw"/><g id="u"><use transform="matrix(0.05,0,0,0.05,0,0)" xlink:href="#P"/><use transform="matrix(0.05,0,0,0.05,3.95,0)" xlink:href="#S"/><use transform="matrix(0.05,0,0,0.05,13.949999999999998,0)" xlink:href="#T"/><use transform="matrix(0.05,0,0,0.05,23.95,0)" xlink:href="#av"/><use transform="matrix(0.05,0,0,0.05,32.95,0)" xlink:href="#aa"/><use transform="matrix(0.05,0,0,0.05,42.95,0)" xlink:href="#ad"/><use transform="matrix(0.05,0,0,0.05,46.900000000000006,0)" xlink:href="#ag"/><use transform="matrix(0.05,0,0,0.05,56.900000000000006,0)" xlink:href="#V"/><use transform="matrix(0.05,0,0,0.05,66.9,0)" xlink:href="#Y"/><use transform="matrix(0.05,0,0,0.05,75.9,0)" xlink:href="#T"/><use transform="matrix(0.05,0,0,0.05,85.9,0)" xlink:href="#R"/><use transform="matrix(0.05,0,0,0.05,90.9,0)" xlink:href="#aw"/><use transform="matrix(0.05,0,0,0.05,99.9,0)" xlink:href="#aj"/><use transform="matrix(0.05,0,0,0.05,109.9,0)" xlink:href="#V"/></g><g id="v"><use transform="matrix(0.05,0,0,0.05,0,0)" xlink:href="#as"/><use transform="matrix(0.05,0,0,0.05,5,0)" xlink:href="#ad"/><use transform="matrix(0.05,0,0,0.05,8.95,0)" xlink:href="#X"/><use transform="matrix(0.05,0,0,0.05,18.95,0)" xlink:href="#aa"/><use transform="matrix(0.05,0,0,0.05,28.950000000000003,0)" xlink:href="#R"/></g><g id="w"><use transform="matrix(0.05,0,0,0.05,0,0)" xlink:href="#av"/><use transform="matrix(0.05,0,0,0.05,9,0)" xlink:href="#aa"/><use transform="matrix(0.05,0,0,0.05,19,0)" xlink:href="#ad"/><use transform="matrix(0.05,0,0,0.05,22.95,0)" xlink:href="#ag"/><use transform="matrix(0.05,0,0,0.05,32.95,0)" xlink:href="#V"/></g><path d="M96-169c-40 0-48 33-48 73s9 75 48 75c24 0 41-14 43-38l32 2c-6 37-31 61-74 61-59 0-76-41-82-99-10-93 101-131 147-64 4 7 5 14 7 22l-32 3c-4-21-16-35-41-35" id="ax"/><g id="x"><use transform="matrix(0.05,0,0,0.05,0,0)" xlink:href="#ax"/><use transform="matrix(0.05,0,0,0.05,9,0)" xlink:href="#U"/><use transform="matrix(0.05,0,0,0.05,14.949999999999998,0)" xlink:href="#V"/><use transform="matrix(0.05,0,0,0.05,24.95,0)" xlink:href="#aa"/><use transform="matrix(0.05,0,0,0.05,34.95,0)" xlink:href="#R"/><use transform="matrix(0.05,0,0,0.05,39.95,0)" xlink:href="#V"/><use transform="matrix(0.05,0,0,0.05,49.95,0)" xlink:href="#T"/><use transform="matrix(0.05,0,0,0.05,59.95,0)" xlink:href="#S"/><use transform="matrix(0.05,0,0,0.05,69.95,0)" xlink:href="#aa"/><use transform="matrix(0.05,0,0,0.05,79.95,0)" xlink:href="#R"/><use transform="matrix(0.05,0,0,0.05,84.95,0)" xlink:href="#V"/></g><path fill="#333" d="M127-220V0H93v-220H8v-28h204v28h-85" id="ay"/><path fill="#333" d="M179-190L93 31C79 59 56 82 12 73V49c39 6 53-20 64-50L1-190h34L92-34l54-156h33" id="az"/><path fill="#333" d="M115-194c55 1 70 41 70 98S169 2 115 4C84 4 66-9 55-30l1 105H24l-1-265h31l2 30c10-21 28-34 59-34zm-8 174c40 0 45-34 45-75s-6-73-45-74c-42 0-51 32-51 76 0 43 10 73 51 73" id="aA"/><g id="y"><use transform="matrix(0.05,0,0,0.05,0,0)" xlink:href="#at"/><use transform="matrix(0.05,0,0,0.05,10.65,0)" xlink:href="#an"/><use transform="matrix(0.05,0,0,0.05,20.65,0)" xlink:href="#ao"/><use transform="matrix(0.05,0,0,0.05,24.599999999999998,0)" xlink:href="#au"/><use transform="matrix(0.05,0,0,0.05,34.599999999999994,0)" xlink:href="#J"/><use transform="matrix(0.05,0,0,0.05,44.599999999999994,0)" xlink:href="#af"/><use transform="matrix(0.05,0,0,0.05,53.599999999999994,0)" xlink:href="#ap"/><use transform="matrix(0.05,0,0,0.05,63.599999999999994,0)" xlink:href="#ay"/><use transform="matrix(0.05,0,0,0.05,73.55,0)" xlink:href="#az"/><use transform="matrix(0.05,0,0,0.05,82.55,0)" xlink:href="#aA"/><use transform="matrix(0.05,0,0,0.05,92.55,0)" xlink:href="#J"/></g><g id="z"><use transform="matrix(0.05,0,0,0.05,0,0)" xlink:href="#Q"/><use transform="matrix(0.05,0,0,0.05,10,0)" xlink:href="#aa"/><use transform="matrix(0.05,0,0,0.05,20,0)" xlink:href="#W"/><use transform="matrix(0.05,0,0,0.05,34.95,0)" xlink:href="#V"/></g><path d="M194 0L95-120 63-95V0H30v-248h33v124l119-124h40L117-140 236 0h-42" id="aB"/><g id="A"><use transform="matrix(0.05,0,0,0.05,0,0)" xlink:href="#aB"/><use transform="matrix(0.05,0,0,0.05,12,0)" xlink:href="#V"/><use transform="matrix(0.05,0,0,0.05,22,0)" xlink:href="#aw"/></g><path d="M63-220v92h138v28H63V0H30v-248h175v28H63" id="aC"/><g id="B"><use transform="matrix(0.05,0,0,0.05,0,0)" xlink:href="#aC"/><use transform="matrix(0.05,0,0,0.05,10.950000000000001,0)" xlink:href="#P"/><use transform="matrix(0.05,0,0,0.05,14.9,0)" xlink:href="#V"/><use transform="matrix(0.05,0,0,0.05,24.900000000000002,0)" xlink:href="#ad"/><use transform="matrix(0.05,0,0,0.05,28.85,0)" xlink:href="#S"/></g><path fill="#333" d="M30-248c118-7 216 8 213 122C240-48 200 0 122 0H30v-248zM63-27c89 8 146-16 146-99s-60-101-146-95v194" id="aD"/><g id="C"><use transform="matrix(0.05,0,0,0.05,0,0)" xlink:href="#aD"/><use transform="matrix(0.05,0,0,0.05,12.950000000000001,0)" xlink:href="#am"/><use transform="matrix(0.05,0,0,0.05,22.950000000000003,0)" xlink:href="#af"/><use transform="matrix(0.05,0,0,0.05,31.950000000000003,0)" xlink:href="#J"/></g><g id="D"><use transform="matrix(0.05,0,0,0.05,0,0)" xlink:href="#P"/><use transform="matrix(0.05,0,0,0.05,3.95,0)" xlink:href="#Q"/><use transform="matrix(0.05,0,0,0.05,13.949999999999998,0)" xlink:href="#R"/></g><g id="E"><use transform="matrix(0.05,0,0,0.05,0,0)" xlink:href="#P"/><use transform="matrix(0.05,0,0,0.05,3.95,0)" xlink:href="#S"/><use transform="matrix(0.05,0,0,0.05,13.949999999999998,0)" xlink:href="#T"/><use transform="matrix(0.05,0,0,0.05,23.95,0)" xlink:href="#S"/><use transform="matrix(0.05,0,0,0.05,33.95,0)" xlink:href="#X"/><use transform="matrix(0.05,0,0,0.05,43.95,0)" xlink:href="#Y"/><use transform="matrix(0.05,0,0,0.05,52.95,0)" xlink:href="#V"/><use transform="matrix(0.05,0,0,0.05,62.95,0)" xlink:href="#T"/><use transform="matrix(0.05,0,0,0.05,72.95,0)" xlink:href="#R"/><use transform="matrix(0.05,0,0,0.05,77.95,0)" xlink:href="#aw"/><use transform="matrix(0.05,0,0,0.05,86.95,0)" xlink:href="#aj"/><use transform="matrix(0.05,0,0,0.05,96.95,0)" xlink:href="#V"/></g><path d="M9 0v-24l116-142H16v-24h144v24L44-24h123V0H9" id="aE"/><g id="F"><use transform="matrix(0.05,0,0,0.05,0,0)" xlink:href="#Y"/><use transform="matrix(0.05,0,0,0.05,9,0)" xlink:href="#P"/><use transform="matrix(0.05,0,0,0.05,12.949999999999998,0)" xlink:href="#aE"/><use transform="matrix(0.05,0,0,0.05,21.95,0)" xlink:href="#V"/></g><g id="G"><use transform="matrix(0.05,0,0,0.05,0,0)" xlink:href="#ad"/><use transform="matrix(0.05,0,0,0.05,3.95,0)" xlink:href="#aa"/><use transform="matrix(0.05,0,0,0.05,13.949999999999998,0)" xlink:href="#aj"/><use transform="matrix(0.05,0,0,0.05,23.95,0)" xlink:href="#Y"/><use transform="matrix(0.05,0,0,0.05,32.95,0)" xlink:href="#V"/></g><g id="H"><use transform="matrix(0.05,0,0,0.05,0,0)" xlink:href="#aD"/><use transform="matrix(0.05,0,0,0.05,12.950000000000001,0)" xlink:href="#am"/><use transform="matrix(0.05,0,0,0.05,22.950000000000003,0)" xlink:href="#af"/><use transform="matrix(0.05,0,0,0.05,31.950000000000003,0)" xlink:href="#J"/><use transform="matrix(0.05,0,0,0.05,41.95,0)" xlink:href="#ap"/><use transform="matrix(0.05,0,0,0.05,51.95,0)" xlink:href="#ay"/><use transform="matrix(0.05,0,0,0.05,61.900000000000006,0)" xlink:href="#az"/><use transform="matrix(0.05,0,0,0.05,70.9,0)" xlink:href="#aA"/><use transform="matrix(0.05,0,0,0.05,80.9,0)" xlink:href="#J"/></g></defs></g></svg>